<?xml version="1.0" encoding="UTF-8" standalone="no"?>
<!DOCTYPE svg PUBLIC "-//W3C//DTD SVG 1.1//EN"
 "http://www.w3.org/Graphics/SVG/1.1/DTD/svg11.dtd">
<!-- Generated by graphviz version 7.1.0 (0)
 -->
<!-- Pages: 1 -->
<svg width="224pt" height="260pt"
 viewBox="0.00 0.00 223.79 260.00" xmlns="http://www.w3.org/2000/svg" xmlns:xlink="http://www.w3.org/1999/xlink">
<g id="graph0" class="graph" transform="scale(1 1) rotate(0) translate(4 256)">
<polygon fill="white" stroke="none" points="-4,4 -4,-256 219.79,-256 219.79,4 -4,4"/>
<!-- var0 -->
<g id="node1" class="node">
<title>var0</title>
<ellipse fill="none" stroke="black" cx="159.9" cy="-234" rx="27" ry="18"/>
<text text-anchor="middle" x="159.9" y="-230.3" font-family="Times,serif" font-size="14.00">Asia</text>
</g>
<!-- var2 -->
<g id="node3" class="node">
<title>var2</title>
<ellipse fill="none" stroke="black" cx="159.9" cy="-162" rx="55.79" ry="18"/>
<text text-anchor="middle" x="159.9" y="-158.3" font-family="Times,serif" font-size="14.00">Tuberculosis</text>
</g>
<!-- var0&#45;&#45;var2 -->
<g id="edge1" class="edge">
<title>var0&#45;&#45;var2</title>
<path fill="none" stroke="black" d="M159.9,-215.7C159.9,-204.85 159.9,-190.92 159.9,-180.1"/>
</g>
<!-- var1 -->
<g id="node2" class="node">
<title>var1</title>
<ellipse fill="none" stroke="black" cx="42.9" cy="-162" rx="42.79" ry="18"/>
<text text-anchor="middle" x="42.9" y="-158.3" font-family="Times,serif" font-size="14.00">Smoking</text>
</g>
<!-- var3 -->
<g id="node4" class="node">
<title>var3</title>
<ellipse fill="none" stroke="black" cx="77.9" cy="-90" rx="53.89" ry="18"/>
<text text-anchor="middle" x="77.9" y="-86.3" font-family="Times,serif" font-size="14.00">LungCancer</text>
</g>
<!-- var1&#45;&#45;var3 -->
<g id="edge2" class="edge">
<title>var1&#45;&#45;var3</title>
<path fill="none" stroke="black" d="M51.37,-144.05C56.87,-133.05 64.01,-118.76 69.5,-107.79"/>
</g>
<!-- var2&#45;&#45;var3 -->
<g id="edge4" class="edge">
<title>var2&#45;&#45;var3</title>
<path fill="none" stroke="black" d="M140.88,-144.76C127.63,-133.46 110.04,-118.44 96.81,-107.15"/>
</g>
<!-- var4 -->
<g id="node5" class="node">
<title>var4</title>
<ellipse fill="none" stroke="black" cx="118.9" cy="-18" rx="32.49" ry="18"/>
<text text-anchor="middle" x="118.9" y="-14.3" font-family="Times,serif" font-size="14.00">Either</text>
</g>
<!-- var2&#45;&#45;var4 -->
<g id="edge3" class="edge">
<title>var2&#45;&#45;var4</title>
<path fill="none" stroke="black" d="M157.17,-143.7C154.09,-125.59 148.51,-96.44 140.9,-72 137.05,-59.63 131.43,-46.16 126.84,-35.89"/>
</g>
<!-- var3&#45;&#45;var4 -->
<g id="edge5" class="edge">
<title>var3&#45;&#45;var4</title>
<path fill="none" stroke="black" d="M87.82,-72.05C94.36,-60.89 102.88,-46.34 109.34,-35.31"/>
</g>
</g>
</svg>
