<?xml version="1.0" encoding="UTF-8" standalone="no"?>
<!DOCTYPE svg PUBLIC "-//W3C//DTD SVG 1.1//EN"
 "http://www.w3.org/Graphics/SVG/1.1/DTD/svg11.dtd">
<!-- Generated by graphviz version 7.1.0 (0)
 -->
<!-- Pages: 1 -->
<svg width="134pt" height="188pt"
 viewBox="0.00 0.00 134.00 188.00" xmlns="http://www.w3.org/2000/svg" xmlns:xlink="http://www.w3.org/1999/xlink">
<g id="graph0" class="graph" transform="scale(1 1) rotate(0) translate(4 184)">
<polygon fill="white" stroke="none" points="-4,4 -4,-184 130,-184 130,4 -4,4"/>
<!-- var0 -->
<g id="node1" class="node">
<title>var0</title>
<ellipse fill="none" stroke="black" cx="27" cy="-162" rx="27" ry="18"/>
<text text-anchor="middle" x="27" y="-158.3" font-family="Times,serif" font-size="14.00">0</text>
</g>
<!-- var2 -->
<g id="node3" class="node">
<title>var2</title>
<ellipse fill="none" stroke="black" cx="27" cy="-90" rx="27" ry="18"/>
<text text-anchor="middle" x="27" y="-86.3" font-family="Times,serif" font-size="14.00">2</text>
</g>
<!-- var0&#45;&gt;var2 -->
<g id="edge4" class="edge">
<title>var0&#45;&gt;var2</title>
<path fill="none" stroke="black" d="M27,-143.7C27,-136.41 27,-127.73 27,-119.54"/>
<polygon fill="black" stroke="black" points="30.5,-119.62 27,-109.62 23.5,-119.62 30.5,-119.62"/>
</g>
<!-- var1 -->
<g id="node2" class="node">
<title>var1</title>
<ellipse fill="none" stroke="black" cx="99" cy="-162" rx="27" ry="18"/>
<text text-anchor="middle" x="99" y="-158.3" font-family="Times,serif" font-size="14.00">1</text>
</g>
<!-- var3 -->
<g id="node4" class="node">
<title>var3</title>
<ellipse fill="none" stroke="black" cx="99" cy="-90" rx="27" ry="18"/>
<text text-anchor="middle" x="99" y="-86.3" font-family="Times,serif" font-size="14.00">3</text>
</g>
<!-- var1&#45;&gt;var3 -->
<g id="edge3" class="edge">
<title>var1&#45;&gt;var3</title>
<path fill="none" stroke="black" d="M99,-143.7C99,-136.41 99,-127.73 99,-119.54"/>
<polygon fill="black" stroke="black" points="102.5,-119.62 99,-109.62 95.5,-119.62 102.5,-119.62"/>
</g>
<!-- var4 -->
<g id="node5" class="node">
<title>var4</title>
<ellipse fill="none" stroke="black" cx="63" cy="-18" rx="27" ry="18"/>
<text text-anchor="middle" x="63" y="-14.3" font-family="Times,serif" font-size="14.00">4</text>
</g>
<!-- var2&#45;&gt;var4 -->
<g id="edge1" class="edge">
<title>var2&#45;&gt;var4</title>
<path fill="none" stroke="black" d="M35.35,-72.76C39.58,-64.55 44.81,-54.37 49.58,-45.09"/>
<polygon fill="black" stroke="black" points="52.54,-46.99 54,-36.49 46.32,-43.79 52.54,-46.99"/>
</g>
<!-- var3&#45;&gt;var4 -->
<g id="edge2" class="edge">
<title>var3&#45;&gt;var4</title>
<path fill="none" stroke="black" d="M90.65,-72.76C86.42,-64.55 81.19,-54.37 76.42,-45.09"/>
<polygon fill="black" stroke="black" points="79.68,-43.79 72,-36.49 73.46,-46.99 79.68,-43.79"/>
</g>
</g>
</svg>
