<?xml version="1.0" encoding="UTF-8" standalone="no"?>
<!DOCTYPE svg PUBLIC "-//W3C//DTD SVG 1.1//EN"
 "http://www.w3.org/Graphics/SVG/1.1/DTD/svg11.dtd">
<!-- Generated by graphviz version 7.1.0 (0)
 -->
<!-- Title: G Pages: 1 -->
<svg width="278pt" height="177pt"
 viewBox="0.00 0.00 278.00 177.00" xmlns="http://www.w3.org/2000/svg" xmlns:xlink="http://www.w3.org/1999/xlink">
<g id="graph0" class="graph" transform="scale(1 1) rotate(0) translate(4 173)">
<title>G</title>
<polygon fill="white" stroke="none" points="-4,4 -4,-173 274,-173 274,4 -4,4"/>
<!-- 0x10c36dda0 -->
<g id="node1" class="node">
<title>0x10c36dda0</title>
<ellipse fill="none" stroke="black" cx="135" cy="-151" rx="18" ry="18"/>
<text text-anchor="middle" x="135" y="-147.3" font-family="Times,serif" font-size="14.00">2</text>
</g>
<!-- 0x142632540 -->
<g id="node2" class="node">
<title>0x142632540</title>
<ellipse fill="none" stroke="black" cx="99" cy="-79" rx="18" ry="18"/>
<text text-anchor="middle" x="99" y="-75.3" font-family="Times,serif" font-size="14.00">0</text>
</g>
<!-- 0x10c36dda0&#45;&gt;0x142632540 -->
<g id="edge1" class="edge">
<title>0x10c36dda0&#45;&gt;0x142632540</title>
<path fill="none" stroke="black" stroke-dasharray="5,2" d="M127.01,-134.46C122.63,-125.95 117.09,-115.17 112.09,-105.46"/>
<polygon fill="black" stroke="black" points="115.35,-104.13 107.66,-96.84 109.12,-107.33 115.35,-104.13"/>
</g>
<!-- 0x10c36dc80 -->
<g id="node5" class="node">
<title>0x10c36dc80</title>
<ellipse fill="none" stroke="black" cx="171" cy="-79" rx="18" ry="18"/>
<text text-anchor="middle" x="171" y="-75.3" font-family="Times,serif" font-size="14.00">0</text>
</g>
<!-- 0x10c36dda0&#45;&gt;0x10c36dc80 -->
<g id="edge4" class="edge">
<title>0x10c36dda0&#45;&gt;0x10c36dc80</title>
<path fill="none" stroke="black" d="M142.99,-134.46C147.37,-125.95 152.91,-115.17 157.91,-105.46"/>
<polygon fill="black" stroke="black" points="160.88,-107.33 162.34,-96.84 154.65,-104.13 160.88,-107.33"/>
</g>
<!-- 0x10c36dbc0 -->
<g id="node3" class="node">
<title>0x10c36dbc0</title>
<polygon fill="none" stroke="black" points="54,-25 0,-25 0,0 54,0 54,-25"/>
<text text-anchor="middle" x="27" y="-8.8" font-family="Times,serif" font-size="14.00">0.99</text>
</g>
<!-- 0x142632540&#45;&gt;0x10c36dbc0 -->
<g id="edge2" class="edge">
<title>0x142632540&#45;&gt;0x10c36dbc0</title>
<path fill="none" stroke="black" stroke-dasharray="5,2" d="M85.79,-66.17C75.34,-56.8 60.53,-43.54 48.39,-32.66"/>
<polygon fill="black" stroke="black" points="51.03,-30.33 41.25,-26.27 46.36,-35.54 51.03,-30.33"/>
</g>
<!-- 0x10c36dc00 -->
<g id="node4" class="node">
<title>0x10c36dc00</title>
<polygon fill="none" stroke="black" points="126,-25 72,-25 72,0 126,0 126,-25"/>
<text text-anchor="middle" x="99" y="-8.8" font-family="Times,serif" font-size="14.00">0.95</text>
</g>
<!-- 0x142632540&#45;&gt;0x10c36dc00 -->
<g id="edge3" class="edge">
<title>0x142632540&#45;&gt;0x10c36dc00</title>
<path fill="none" stroke="black" d="M99,-60.72C99,-53.37 99,-44.69 99,-36.79"/>
<polygon fill="black" stroke="black" points="102.5,-36.84 99,-26.84 95.5,-36.84 102.5,-36.84"/>
</g>
<!-- 0x10c36dcd0 -->
<g id="node6" class="node">
<title>0x10c36dcd0</title>
<polygon fill="none" stroke="black" points="198,-25 144,-25 144,0 198,0 198,-25"/>
<text text-anchor="middle" x="171" y="-8.8" font-family="Times,serif" font-size="14.00">0.01</text>
</g>
<!-- 0x10c36dc80&#45;&gt;0x10c36dcd0 -->
<g id="edge5" class="edge">
<title>0x10c36dc80&#45;&gt;0x10c36dcd0</title>
<path fill="none" stroke="black" stroke-dasharray="5,2" d="M171,-60.72C171,-53.37 171,-44.69 171,-36.79"/>
<polygon fill="black" stroke="black" points="174.5,-36.84 171,-26.84 167.5,-36.84 174.5,-36.84"/>
</g>
<!-- 0x10c36dd10 -->
<g id="node7" class="node">
<title>0x10c36dd10</title>
<polygon fill="none" stroke="black" points="270,-25 216,-25 216,0 270,0 270,-25"/>
<text text-anchor="middle" x="243" y="-8.8" font-family="Times,serif" font-size="14.00">0.05</text>
</g>
<!-- 0x10c36dc80&#45;&gt;0x10c36dd10 -->
<g id="edge6" class="edge">
<title>0x10c36dc80&#45;&gt;0x10c36dd10</title>
<path fill="none" stroke="black" d="M184.21,-66.17C194.66,-56.8 209.47,-43.54 221.61,-32.66"/>
<polygon fill="black" stroke="black" points="223.64,-35.54 228.75,-26.27 218.97,-30.33 223.64,-35.54"/>
</g>
</g>
</svg>
