<?xml version="1.0" encoding="UTF-8" standalone="no"?>
<!DOCTYPE svg PUBLIC "-//W3C//DTD SVG 1.1//EN"
 "http://www.w3.org/Graphics/SVG/1.1/DTD/svg11.dtd">
<!-- Generated by graphviz version 7.1.0 (0)
 -->
<!-- Pages: 1 -->
<svg width="246pt" height="116pt"
 viewBox="0.00 0.00 245.84 116.00" xmlns="http://www.w3.org/2000/svg" xmlns:xlink="http://www.w3.org/1999/xlink">
<g id="graph0" class="graph" transform="scale(1 1) rotate(0) translate(4 112)">
<polygon fill="white" stroke="none" points="-4,4 -4,-112 241.84,-112 241.84,4 -4,4"/>
<!-- var0 -->
<g id="node1" class="node">
<title>var0</title>
<ellipse fill="none" stroke="black" cx="55.9" cy="-90" rx="55.79" ry="18"/>
<text text-anchor="middle" x="55.9" y="-86.3" font-family="Times,serif" font-size="14.00">Tuberculosis</text>
</g>
<!-- var2 -->
<g id="node3" class="node">
<title>var2</title>
<ellipse fill="none" stroke="black" cx="119.9" cy="-18" rx="32.49" ry="18"/>
<text text-anchor="middle" x="119.9" y="-14.3" font-family="Times,serif" font-size="14.00">Either</text>
</g>
<!-- var0&#45;&gt;var2 -->
<g id="edge1" class="edge">
<title>var0&#45;&gt;var2</title>
<path fill="none" stroke="black" d="M71.06,-72.41C79.1,-63.62 89.12,-52.66 97.98,-42.96"/>
<polygon fill="black" stroke="black" points="100.53,-45.37 104.69,-35.63 95.36,-40.65 100.53,-45.37"/>
</g>
<!-- var1 -->
<g id="node2" class="node">
<title>var1</title>
<ellipse fill="none" stroke="black" cx="183.9" cy="-90" rx="53.89" ry="18"/>
<text text-anchor="middle" x="183.9" y="-86.3" font-family="Times,serif" font-size="14.00">LungCancer</text>
</g>
<!-- var1&#45;&gt;var2 -->
<g id="edge2" class="edge">
<title>var1&#45;&gt;var2</title>
<path fill="none" stroke="black" d="M168.73,-72.41C160.69,-63.62 150.67,-52.66 141.81,-42.96"/>
<polygon fill="black" stroke="black" points="144.43,-40.65 135.1,-35.63 139.26,-45.37 144.43,-40.65"/>
</g>
</g>
</svg>
