<?xml version="1.0" encoding="UTF-8" standalone="no"?>
<!DOCTYPE svg PUBLIC "-//W3C//DTD SVG 1.1//EN"
 "http://www.w3.org/Graphics/SVG/1.1/DTD/svg11.dtd">
<!-- Generated by graphviz version 7.1.0 (0)
 -->
<!-- Pages: 1 -->
<svg width="328pt" height="156pt"
 viewBox="0.00 0.00 327.84 155.60" xmlns="http://www.w3.org/2000/svg" xmlns:xlink="http://www.w3.org/1999/xlink">
<g id="graph0" class="graph" transform="scale(1 1) rotate(0) translate(4 151.6)">
<polygon fill="white" stroke="none" points="-4,4 -4,-151.6 323.84,-151.6 323.84,4 -4,4"/>
<!-- var0 -->
<g id="node1" class="node">
<title>var0</title>
<ellipse fill="none" stroke="black" cx="55.9" cy="-57.6" rx="27" ry="18"/>
<text text-anchor="middle" x="55.9" y="-53.9" font-family="Times,serif" font-size="14.00">Asia</text>
</g>
<!-- factor0 -->
<g id="node6" class="node">
<title>factor0</title>
<ellipse fill="black" stroke="black" cx="55.9" cy="-1.8" rx="1.8" ry="1.8"/>
</g>
<!-- var0&#45;&#45;factor0 -->
<g id="edge1" class="edge">
<title>var0&#45;&#45;factor0</title>
<path fill="none" stroke="black" d="M55.9,-39.28C55.9,-25.77 55.9,-8.54 55.9,-3.96"/>
</g>
<!-- var1 -->
<g id="node2" class="node">
<title>var1</title>
<ellipse fill="none" stroke="black" cx="265.9" cy="-57.6" rx="42.79" ry="18"/>
<text text-anchor="middle" x="265.9" y="-53.9" font-family="Times,serif" font-size="14.00">Smoking</text>
</g>
<!-- factor1 -->
<g id="node7" class="node">
<title>factor1</title>
<ellipse fill="black" stroke="black" cx="265.9" cy="-1.8" rx="1.8" ry="1.8"/>
</g>
<!-- var1&#45;&#45;factor1 -->
<g id="edge2" class="edge">
<title>var1&#45;&#45;factor1</title>
<path fill="none" stroke="black" d="M265.9,-39.28C265.9,-25.77 265.9,-8.54 265.9,-3.96"/>
</g>
<!-- var2 -->
<g id="node3" class="node">
<title>var2</title>
<ellipse fill="none" stroke="black" cx="55.9" cy="-129.6" rx="55.79" ry="18"/>
<text text-anchor="middle" x="55.9" y="-125.9" font-family="Times,serif" font-size="14.00">Tuberculosis</text>
</g>
<!-- var2&#45;&#45;var0 -->
<g id="edge3" class="edge">
<title>var2&#45;&#45;var0</title>
<path fill="none" stroke="black" d="M55.9,-111.3C55.9,-100.45 55.9,-86.52 55.9,-75.7"/>
</g>
<!-- factor4 -->
<g id="node8" class="node">
<title>factor4</title>
<ellipse fill="black" stroke="black" cx="161.9" cy="-57.6" rx="1.8" ry="1.8"/>
</g>
<!-- var2&#45;&#45;factor4 -->
<g id="edge6" class="edge">
<title>var2&#45;&#45;factor4</title>
<path fill="none" stroke="black" d="M79.68,-112.89C108.01,-94.19 152.51,-64.8 160.61,-59.45"/>
</g>
<!-- var3 -->
<g id="node4" class="node">
<title>var3</title>
<ellipse fill="none" stroke="black" cx="265.9" cy="-129.6" rx="53.89" ry="18"/>
<text text-anchor="middle" x="265.9" y="-125.9" font-family="Times,serif" font-size="14.00">LungCancer</text>
</g>
<!-- var3&#45;&#45;var1 -->
<g id="edge4" class="edge">
<title>var3&#45;&#45;var1</title>
<path fill="none" stroke="black" d="M265.9,-111.3C265.9,-100.45 265.9,-86.52 265.9,-75.7"/>
</g>
<!-- var3&#45;&#45;factor4 -->
<g id="edge7" class="edge">
<title>var3&#45;&#45;factor4</title>
<path fill="none" stroke="black" d="M242.56,-112.89C214.77,-94.19 171.1,-64.8 163.16,-59.45"/>
</g>
<!-- var4 -->
<g id="node5" class="node">
<title>var4</title>
<ellipse fill="none" stroke="black" cx="161.9" cy="-129.6" rx="32.49" ry="18"/>
<text text-anchor="middle" x="161.9" y="-125.9" font-family="Times,serif" font-size="14.00">Either</text>
</g>
<!-- var4&#45;&#45;factor4 -->
<g id="edge5" class="edge">
<title>var4&#45;&#45;factor4</title>
<path fill="none" stroke="black" d="M161.9,-111.3C161.9,-92.51 161.9,-64.5 161.9,-59.41"/>
</g>
</g>
</svg>
