<?xml version="1.0" encoding="UTF-8" standalone="no"?>
<!DOCTYPE svg PUBLIC "-//W3C//DTD SVG 1.1//EN"
 "http://www.w3.org/Graphics/SVG/1.1/DTD/svg11.dtd">
<!-- Generated by graphviz version 7.1.0 (0)
 -->
<!-- Pages: 1 -->
<svg width="360pt" height="175pt"
 viewBox="0.00 0.00 360.00 174.56" xmlns="http://www.w3.org/2000/svg" xmlns:xlink="http://www.w3.org/1999/xlink">
<g id="graph0" class="graph" transform="scale(0.788231 0.788231) rotate(0) translate(4 217.46)">
<polygon fill="white" stroke="none" points="-4,4 -4,-217.46 452.72,-217.46 452.72,4 -4,4"/>
<!-- var4683743612465315840 -->
<g id="node1" class="node">
<title>var4683743612465315840</title>
<ellipse fill="none" stroke="black" cx="164.46" cy="-195.46" rx="27" ry="18"/>
<text text-anchor="middle" x="164.46" y="-191.76" font-family="Times,serif" font-size="14.00">A0</text>
</g>
<!-- factor1 -->
<g id="node10" class="node">
<title>factor1</title>
<ellipse fill="black" stroke="black" cx="104.94" cy="-151.07" rx="1.8" ry="1.8"/>
</g>
<!-- var4683743612465315840&#45;&#45;factor1 -->
<g id="edge4" class="edge">
<title>var4683743612465315840&#45;&#45;factor1</title>
<path fill="none" stroke="black" d="M146.28,-181.9C131.51,-170.89 112.23,-156.51 106.57,-152.29"/>
</g>
<!-- var4683743612465315841 -->
<g id="node2" class="node">
<title>var4683743612465315841</title>
<ellipse fill="none" stroke="black" cx="236.46" cy="-195.46" rx="27" ry="18"/>
<text text-anchor="middle" x="236.46" y="-191.76" font-family="Times,serif" font-size="14.00">A1</text>
</g>
<!-- factor2 -->
<g id="node11" class="node">
<title>factor2</title>
<ellipse fill="black" stroke="black" cx="333.71" cy="-185.03" rx="1.8" ry="1.8"/>
</g>
<!-- var4683743612465315841&#45;&#45;factor2 -->
<g id="edge7" class="edge">
<title>var4683743612465315841&#45;&#45;factor2</title>
<path fill="none" stroke="black" d="M263.55,-192.56C288.51,-189.88 322.94,-186.19 331.65,-185.26"/>
</g>
<!-- var6341068275337658368 -->
<g id="node3" class="node">
<title>var6341068275337658368</title>
<ellipse fill="none" stroke="black" cx="164.46" cy="-123.46" rx="27" ry="18"/>
<text text-anchor="middle" x="164.46" y="-119.76" font-family="Times,serif" font-size="14.00">X0</text>
</g>
<!-- factor0 -->
<g id="node9" class="node">
<title>factor0</title>
<ellipse fill="black" stroke="black" cx="1.8" cy="-113.11" rx="1.8" ry="1.8"/>
</g>
<!-- var6341068275337658368&#45;&#45;factor0 -->
<g id="edge1" class="edge">
<title>var6341068275337658368&#45;&#45;factor0</title>
<path fill="none" stroke="black" d="M137.24,-121.73C95.27,-119.06 18.14,-114.15 4.04,-113.25"/>
</g>
<!-- var6341068275337658368&#45;&#45;factor1 -->
<g id="edge3" class="edge">
<title>var6341068275337658368&#45;&#45;factor1</title>
<path fill="none" stroke="black" d="M141.96,-133.9C128.26,-140.25 112.38,-147.62 106.91,-150.16"/>
</g>
<!-- factor3 -->
<g id="node12" class="node">
<title>factor3</title>
<ellipse fill="black" stroke="black" cx="34.97" cy="-26.82" rx="1.8" ry="1.8"/>
</g>
<!-- var6341068275337658368&#45;&#45;factor3 -->
<g id="edge9" class="edge">
<title>var6341068275337658368&#45;&#45;factor3</title>
<path fill="none" stroke="black" d="M146.18,-109.82C113.56,-85.47 47.66,-36.29 36.57,-28.01"/>
</g>
<!-- var6341068275337658369 -->
<g id="node4" class="node">
<title>var6341068275337658369</title>
<ellipse fill="none" stroke="black" cx="236.46" cy="-123.46" rx="27" ry="18"/>
<text text-anchor="middle" x="236.46" y="-119.76" font-family="Times,serif" font-size="14.00">X1</text>
</g>
<!-- var6341068275337658369&#45;&#45;factor1 -->
<g id="edge2" class="edge">
<title>var6341068275337658369&#45;&#45;factor1</title>
<path fill="none" stroke="black" d="M210.48,-128.92C176.04,-136.15 118.29,-148.27 106.92,-150.66"/>
</g>
<!-- var6341068275337658369&#45;&#45;factor2 -->
<g id="edge6" class="edge">
<title>var6341068275337658369&#45;&#45;factor2</title>
<path fill="none" stroke="black" d="M256.14,-135.92C281.45,-151.94 323.21,-178.38 332.04,-183.98"/>
</g>
<!-- factor4 -->
<g id="node13" class="node">
<title>factor4</title>
<ellipse fill="black" stroke="black" cx="243.45" cy="-1.8" rx="1.8" ry="1.8"/>
</g>
<!-- var6341068275337658369&#45;&#45;factor4 -->
<g id="edge11" class="edge">
<title>var6341068275337658369&#45;&#45;factor4</title>
<path fill="none" stroke="black" d="M237.52,-104.98C239.28,-74.4 242.67,-15.48 243.34,-3.83"/>
</g>
<!-- var6341068275337658370 -->
<g id="node5" class="node">
<title>var6341068275337658370</title>
<ellipse fill="none" stroke="black" cx="308.46" cy="-123.46" rx="27" ry="18"/>
<text text-anchor="middle" x="308.46" y="-119.76" font-family="Times,serif" font-size="14.00">X2</text>
</g>
<!-- var6341068275337658370&#45;&#45;factor2 -->
<g id="edge5" class="edge">
<title>var6341068275337658370&#45;&#45;factor2</title>
<path fill="none" stroke="black" d="M315.77,-141.27C321.94,-156.33 330.2,-176.46 332.85,-182.94"/>
</g>
<!-- factor5 -->
<g id="node14" class="node">
<title>factor5</title>
<ellipse fill="black" stroke="black" cx="446.92" cy="-74.62" rx="1.8" ry="1.8"/>
</g>
<!-- var6341068275337658370&#45;&#45;factor5 -->
<g id="edge13" class="edge">
<title>var6341068275337658370&#45;&#45;factor5</title>
<path fill="none" stroke="black" d="M332.58,-114.95C368.53,-102.27 433.23,-79.45 445.04,-75.28"/>
</g>
<!-- var6485183463413514240 -->
<g id="node6" class="node">
<title>var6485183463413514240</title>
<ellipse fill="none" stroke="black" cx="164.46" cy="-51.46" rx="27" ry="18"/>
<text text-anchor="middle" x="164.46" y="-47.76" font-family="Times,serif" font-size="14.00">Z0</text>
</g>
<!-- var6485183463413514240&#45;&#45;factor3 -->
<g id="edge8" class="edge">
<title>var6485183463413514240&#45;&#45;factor3</title>
<path fill="none" stroke="black" d="M138.26,-46.47C104.56,-40.06 48.96,-29.48 37.2,-27.24"/>
</g>
<!-- var6485183463413514241 -->
<g id="node7" class="node">
<title>var6485183463413514241</title>
<ellipse fill="none" stroke="black" cx="236.46" cy="-51.46" rx="27" ry="18"/>
<text text-anchor="middle" x="236.46" y="-47.76" font-family="Times,serif" font-size="14.00">Z1</text>
</g>
<!-- var6485183463413514241&#45;&#45;factor4 -->
<g id="edge10" class="edge">
<title>var6485183463413514241&#45;&#45;factor4</title>
<path fill="none" stroke="black" d="M239.03,-33.25C240.58,-22.18 242.41,-9.21 243.13,-4.07"/>
</g>
<!-- var6485183463413514242 -->
<g id="node8" class="node">
<title>var6485183463413514242</title>
<ellipse fill="none" stroke="black" cx="308.46" cy="-51.46" rx="27" ry="18"/>
<text text-anchor="middle" x="308.46" y="-47.76" font-family="Times,serif" font-size="14.00">Z2</text>
</g>
<!-- var6485183463413514242&#45;&#45;factor5 -->
<g id="edge12" class="edge">
<title>var6485183463413514242&#45;&#45;factor5</title>
<path fill="none" stroke="black" d="M334.83,-55.87C370.92,-61.91 432.64,-72.23 444.8,-74.27"/>
</g>
</g>
</svg>
